<svg xmlns="http://www.w3.org/2000/svg" viewBox="0 0 58.202 58.202"><defs><style>.a{fill:#1d2964;}</style></defs><path class="a" d="M49.585,49.6H40.967V36.092c0-3.221-.065-7.365-4.491-7.365-4.494,0-5.18,3.5-5.18,7.127V49.6H22.677V21.826h8.279v3.786h.112a9.083,9.083,0,0,1,8.173-4.486c8.733,0,10.348,5.747,10.348,13.229V49.6ZM12.943,18.026a5.005,5.005,0,1,1,5.005-5.008A5,5,0,0,1,12.943,18.026ZM17.264,49.6H8.621V21.826h8.643ZM53.9,0H4.295A4.243,4.243,0,0,0,0,4.193V54.009A4.242,4.242,0,0,0,4.295,58.2h49.6A4.258,4.258,0,0,0,58.2,54.009V4.193A4.26,4.26,0,0,0,53.89,0Z" transform="translate(0 0)"/></svg>