<svg xmlns="http://www.w3.org/2000/svg" viewBox="0 0 56.404 55.007"><defs><style>.a{fill:#1d2964;}</style></defs><path class="a" d="M28.2.3a28.2,28.2,0,0,0-8.919,54.958c1.41.266,1.927-.606,1.927-1.356,0-.67-.024-2.444-.035-4.794-7.845,1.7-9.5-3.784-9.5-3.784C10.392,42.066,8.538,41.2,8.538,41.2c-2.555-1.749.2-1.713.2-1.713a5.913,5.913,0,0,1,4.32,2.9c2.515,4.313,6.6,3.067,8.214,2.345a6.013,6.013,0,0,1,1.786-3.772c-6.263-.705-12.846-3.13-12.846-13.936a10.88,10.88,0,0,1,2.9-7.567,10.027,10.027,0,0,1,.247-7.464s2.362-.757,7.756,2.891a26.589,26.589,0,0,1,14.1,0c5.358-3.647,7.72-2.891,7.72-2.891a10.3,10.3,0,0,1,.282,7.464,10.925,10.925,0,0,1,2.891,7.567c0,10.834-6.592,13.22-12.867,13.913.987.846,1.9,2.576,1.9,5.217,0,3.774-.035,6.806-.035,7.723,0,.74.494,1.622,1.939,1.34A28.167,28.167,0,0,0,28.2.3" transform="translate(0 -0.297)"/></svg>